<svg aria-hidden="true" style="position: absolute; width: 0; height: 0; overflow: hidden;" version="1.1" xmlns="http://www.w3.org/2000/svg" xmlns:xlink="http://www.w3.org/1999/xlink">
<defs>
<symbol id="arrow" viewBox="0 0 32 32">
<path d="M16 18v14l16-16-16-16v14h-16v4h16z"></path>
</symbol>
<symbol id="folder" viewBox="0 0 32 32">
<path d="M13.462 1.6l3.2 3.2h13.738c0.883 0 1.6 0.717 1.6 1.6v22.4c0 0.883-0.717 1.6-1.6 1.6h-28.8c-0.883 0-1.6-0.717-1.6-1.6v-25.6c0-0.883 0.717-1.6 1.6-1.6h11.862zM17.6 11.2h-3.2v9.6h8v-3.2h-4.8v-6.4z"></path>
</symbol>
<symbol id="profile" viewBox="0 0 32 32">
<path d="M4.8 28.8h22.4v3.2h-22.4v-3.2zM16 25.6c-3.395 0-6.651-1.349-9.051-3.749s-3.749-5.656-3.749-9.051c0-3.395 1.349-6.651 3.749-9.051s5.656-3.749 9.051-3.749c3.395 0 6.65 1.349 9.051 3.749s3.749 5.656 3.749 9.051c0 3.395-1.349 6.65-3.749 9.051s-5.656 3.749-9.051 3.749z"></path>
</symbol>
<symbol id="graph" viewBox="0 0 32 32">
<path d="M3.282 1.231v26.256h26.256v3.282h-29.538v-29.538h3.282zM27.799 6.055l3.479 3.479-9.945 9.948-4.923-4.923-6.466 6.466-3.479-3.482 9.945-9.945 4.923 4.923 6.466-6.466z"></path>
</symbol>
<symbol id="bubbles" viewBox="0 0 32 32">
<path d="M24 22.4c2.651 0 4.8 2.149 4.8 4.8s-2.149 4.8-4.8 4.8c-2.651 0-4.8-2.149-4.8-4.8s2.149-4.8 4.8-4.8zM8 16c3.536 0 6.4 2.864 6.4 6.4s-2.864 6.4-6.4 6.4c-3.536 0-6.4-2.864-6.4-6.4s2.864-6.4 6.4-6.4zM21.6 0c4.861 0 8.8 3.939 8.8 8.8s-3.939 8.8-8.8 8.8c-4.861 0-8.8-3.939-8.8-8.8s3.939-8.8 8.8-8.8z"></path>
</symbol>
<symbol id="message" viewBox="0 0 32 32">
<path d="M8.466 30.118l-8.466 1.882 1.882-8.466c-1.239-2.318-1.886-4.906-1.882-7.534 0-8.837 7.163-16 16-16s16 7.163 16 16c0 8.837-7.163 16-16 16-2.628 0.004-5.217-0.642-7.534-1.882z"></path>
</symbol>
<symbol id="grid" viewBox="0 0 32 32">
<path d="M29.333 17.332v9.335c0 0.354-0.14 0.693-0.391 0.943s-0.589 0.391-0.943 0.391h-10.667v-10.668h12zM14.667 17.332v10.668h-10.667c-0.354 0-0.693-0.14-0.943-0.391s-0.391-0.589-0.391-0.943v-9.335h12zM14.667 4v10.665h-12v-9.332c0-0.354 0.14-0.693 0.391-0.943s0.589-0.391 0.943-0.391h10.667zM28 4c0.354 0 0.693 0.14 0.943 0.391s0.391 0.589 0.391 0.943v9.332h-12v-10.665h10.667z"></path>
</symbol>
<symbol id="logo" viewBox="0 0 32 32">
<path d="M23.681 4.026c0-2.075 1.685-3.76 3.76-3.76s3.76 1.685 3.76 3.76c0 2.075-1.685 3.76-3.76 3.76s-3.76-1.685-3.76-3.76zM17.675 20.171l4.508-5.817-0.062 0.031c0.25-0.343 0.296-0.78 0.125-1.17-0.17-0.39-0.546-0.655-0.95-0.686-0.423-0.047-0.842 0.14-1.094 0.484l-3.774 4.883-4.323-3.401c-0.265-0.203-0.577-0.282-0.889-0.249-0.31 0.047-0.591 0.217-0.78 0.466l-4.616 6.008-0.095 0.14c-0.265 0.498-0.14 1.137 0.328 1.482 0.218 0.14 0.452 0.234 0.718 0.234 0.36 0.016 0.702-0.173 0.92-0.468l3.916-5.040 4.446 3.34 0.14 0.092c0.499 0.265 1.123 0.142 1.482-0.328zM20.982 3.044c-0.062 0.39-0.094 0.78-0.094 1.17 0 3.51 2.839 6.348 6.334 6.348 0.39 0 0.764-0.045 1.155-0.108v12.587c0 5.29-3.12 8.425-8.424 8.425h-11.527c-5.306 0-8.426-3.135-8.426-8.425v-11.542c0-5.304 3.12-8.455 8.426-8.455h12.556z"></path>
</symbol>
</defs>
</svg>
